<svg xmlns="http://www.w3.org/2000/svg" width="256" height="256" viewBox="0 0 100 100"><rect width="100" height="100" rx="20" fill="#7d6ee7"></rect><path fill="#fff" d="M22.91 72.41L22.91 72.41Q28.94 72.41 32.05 69.67Q35.15 66.92 35.15 62.60L35.15 62.60Q35.15 58.82 32.77 56.48Q30.38 54.14 25.25 52.61L25.25 52.61L17.42 50.27Q11.66 48.56 8.38 45.23Q5.09 41.90 5.09 36.23L5.09 36.23Q5.09 32.81 6.40 30.06Q7.70 27.32 10.13 25.43Q12.56 23.54 15.94 22.51Q19.31 21.47 23.54 21.47L23.54 21.47Q27.14 21.47 30.25 22.05Q33.35 22.64 35.65 23.68Q37.94 24.71 39.20 25.97Q40.46 27.23 40.46 28.58L40.46 28.58Q40.46 29.84 39.83 30.74Q39.20 31.64 38.21 32.18L38.21 32.18Q35.87 30.38 32.13 29.03Q28.40 27.68 23.81 27.68L23.81 27.68Q18.50 27.68 15.49 29.93Q12.47 32.18 12.47 36.23L12.47 36.23Q12.47 39.38 14.63 41.36Q16.79 43.34 21.83 44.78L21.83 44.78L27.32 46.40Q34.43 48.47 38.52 52.20Q42.62 55.94 42.62 62.60L42.62 62.60Q42.62 69.71 37.49 74.12Q32.36 78.53 22.91 78.53L22.91 78.53Q18.77 78.53 15.40 77.81Q12.02 77.09 9.64 75.92Q7.25 74.75 5.95 73.36Q4.64 71.96 4.64 70.61L4.64 70.61Q4.64 69.08 5.59 68.05Q6.53 67.01 7.79 66.56L7.79 66.56Q8.78 67.55 10.22 68.58Q11.66 69.62 13.55 70.47Q15.44 71.33 17.78 71.87Q20.12 72.41 22.91 72.41ZM94.82 28.67L94.82 28.67Q94.82 29.93 94.06 30.83Q93.29 31.73 92.30 32.18L92.30 32.18Q89.96 30.56 86.81 29.12Q83.66 27.68 78.62 27.68L78.62 27.68Q74.48 27.68 70.97 29.12Q67.46 30.56 64.85 33.35Q62.24 36.14 60.76 40.37Q59.27 44.60 59.27 50.09L59.27 50.09Q59.27 55.67 60.71 59.81Q62.15 63.95 64.72 66.74Q67.28 69.53 70.88 70.92Q74.48 72.32 78.89 72.32L78.89 72.32Q83.57 72.32 87.03 71.02Q90.50 69.71 92.84 67.91L92.84 67.91Q93.74 68.27 94.55 69.22Q95.36 70.16 95.36 71.42L95.36 71.42Q95.36 73.31 93.20 74.84L93.20 74.84Q91.13 76.28 87.53 77.41Q83.93 78.53 78.35 78.53L78.35 78.53Q72.68 78.53 67.82 76.73Q62.96 74.93 59.41 71.38Q55.85 67.82 53.78 62.51Q51.71 57.20 51.71 50.09L51.71 50.09Q51.71 42.98 53.83 37.63Q55.94 32.27 59.54 28.67Q63.14 25.07 67.95 23.27Q72.77 21.47 78.08 21.47L78.08 21.47Q81.77 21.47 84.88 22.10Q87.98 22.73 90.19 23.77Q92.39 24.80 93.60 26.11Q94.82 27.41 94.82 28.67Z"></path></svg>